<?xml version="1.0" encoding="UTF-8"?>
<svg id="_圖層_1" data-name="圖層 1" xmlns="http://www.w3.org/2000/svg" viewBox="0 0 871.25 146.46">
  <defs>
    <style>
      .cls-1 {
        fill: #fff;
      }

      .cls-2 {
        fill: #c1e3e6;
      }

      .cls-3 {
        fill: #626363;
      }

      .cls-4 {
        fill: #52a5a3;
      }
    </style>
  </defs>
  <g>
    <path class="cls-3" d="M301.16,36.38c-.71,2.64-1.37,5.59-2.08,7.92h17.36v32.39h-3.5v-3.35h-26.09v3.35h-3.4v-32.39h12.23c.56-2.33,1.17-5.33,1.57-7.92h-19.7v-3.3h44.06v3.3h-20.46ZM312.94,47.45h-26.09v9.65h26.09v-9.65ZM312.94,70.14v-9.95h-26.09v9.95h26.09Z"/>
    <path class="cls-3" d="M378.85,55.47c-1.62,4.47-3.86,8.43-6.6,11.78,1.83,3.81,4.01,5.99,6.29,5.99,1.22,0,1.73-1.93,1.93-6.75.71.56,1.78,1.17,2.59,1.42-.51,6.5-1.68,8.38-4.77,8.38-3.25,0-5.99-2.44-8.17-6.6-2.64,2.69-5.59,5.08-8.83,6.9-.41-.66-1.57-1.83-2.28-2.39,3.71-1.93,7.01-4.42,9.8-7.41-1.62-4.01-2.74-8.93-3.45-14.47h-20.92v5.48c0,5.58-.66,13.45-4.42,18.88-.56-.56-1.98-1.42-2.74-1.67,3.55-5.18,4.01-12.13,4.01-17.21v-8.38h23.76c-.1-1.47-.2-3.05-.25-4.62h-26.4v-2.89h8.22v-9.29h3.15v9.29h9.49v-11.57h3.3v4.42h15.38v2.69h-15.38v4.47h20.1v2.89h-9.09c1.83.86,3.71,1.93,4.87,2.89l-1.57,1.73h5.33v2.89h-13.76c.51,4.47,1.37,8.48,2.54,11.73,1.98-2.74,3.6-5.89,4.77-9.29l3.1.71ZM351.29,60.75c-.81,3.1-2.28,6.19-3.91,8.33-.51-.41-1.57-1.17-2.23-1.52,1.68-1.93,2.84-4.62,3.5-7.36l2.64.56ZM363.83,61.11c-2.18,7.11-8.17,12.59-16.75,15.18-.3-.56-1.02-1.57-1.42-2.08,4.26-1.27,7.92-3.3,10.66-5.84h-2.64v-10.41h-6.85v-2.54h16.3v2.54h-6.6v10.2c2.18-2.13,3.76-4.67,4.47-7.51l2.84.46ZM367.89,44.81c.05,1.57.15,3.15.25,4.62h8.38c-1.47-1.17-4.01-2.69-6.19-3.55l1.07-1.07h-3.5Z"/>
    <path class="cls-3" d="M419.39,62.48v-16.14h-9.6v23.55h32.79v3.25h-36.35v-26.8h-7.46v-3.25h7.46v-11.37h3.55v11.37h9.6v-12.54h3.35v12.54h10.1v-11.98h3.5v11.98h7.72v3.25h-7.72v16.14h-16.96ZM422.74,46.34v13h10.1v-13h-10.1Z"/>
    <path class="cls-3" d="M476.26,31.87c-1.57,3.6-3.45,7.16-5.58,10.41v34.17h-3.4v-29.34c-2.23,2.94-4.67,5.58-7.11,7.77-.36-.76-1.37-2.44-1.98-3.2,5.89-4.98,11.52-12.69,14.93-20.81l3.15,1.01ZM489.57,48.92c1.83,13.76,5.28,23.2,10.97,23.66,1.42.1,2.33-2.95,2.89-8.89.66.66,2.08,1.42,2.79,1.73-1.07,8.53-2.94,11.22-5.59,11.12-8.38-.61-12.34-11.32-14.32-27.26l-12.59,1.62-.51-3.2,12.69-1.57c-.46-4.67-.81-9.75-1.07-15.08h3.4c.15,5.18.51,10.15.97,14.67l15.38-1.88.51,3.1-15.53,1.98ZM501.5,41.51c-1.73-2.33-5.33-5.89-8.43-8.38l2.44-1.57c3.1,2.39,6.75,5.79,8.58,8.07l-2.59,1.88Z"/>
    <path class="cls-3" d="M532.03,31.21c-.96,3.4-2.18,6.8-3.5,9.95v35.28h-3.04v-28.99c-1.27,2.29-2.59,4.37-3.96,6.14-.3-.76-1.22-2.54-1.78-3.35,3.96-4.92,7.26-12.29,9.24-19.8l3.04.76ZM542.74,49.28c-.71,7.16-1.98,12.84-3.91,17.31,4.87,5.33,11.57,6.4,18.68,6.4,1.47,0,6.96,0,8.83-.05-.41.76-.97,2.13-1.12,3h-7.87c-7.72,0-14.67-1.17-19.8-6.5-1.68,3.05-3.71,5.38-6.04,7.11-.46-.66-1.62-1.73-2.28-2.13,2.54-1.78,4.62-4.26,6.24-7.51-1.73-2.54-3.25-5.69-4.37-9.65l2.49-.91c.81,3,1.93,5.48,3.2,7.51,1.32-3.3,2.18-7.36,2.74-12.18h-5.79c-.66.35-1.37.81-1.37,1.17-.25-.61-.91-1.93-1.37-2.54.86-.2,1.98-1.52,2.94-3.1.86-1.27,3.3-5.58,5.13-10.15h-6.85v-2.94h7.92l1.07-.51,2.08,1.37c-2.18,5.08-4.67,10.1-7.11,13.96h4.16l.56-.1,1.83.46ZM551.37,37.2h-6.55v-2.54h6.55v-4.16h2.89v4.16h8.33v6.75h3.76v2.64h-3.76v6.95h-8.33v4.11h9.29v2.74h-9.29v4.21h10.97v2.79h-10.97v6.4h-2.89v-6.4h-8.83v-2.79h8.83v-4.21h-7.41v-2.74h7.41v-4.11h-6.55v-2.54h6.55v-4.42h-8.88v-2.64h8.88v-4.21ZM554.26,37.2v4.21h5.63v-4.21h-5.63ZM559.9,44.05h-5.63v4.42h5.63v-4.42Z"/>
    <path class="cls-3" d="M608.5,64c1.22.46,2.44.91,3.71,1.42,2.84-1.62,6.55-4.42,8.68-6.4l2.54,1.93c-2.49,1.98-5.59,4.11-8.28,5.74,4.16,1.73,8.22,3.55,10.81,5.03l-1.47,2.49c-3.6-2.08-10.25-5.18-15.99-7.51v5.79c0,2.23-.66,3.1-2.13,3.6-1.62.51-4.31.51-8.48.51-.2-.86-.66-2.08-1.17-2.94,3.25.1,6.35.1,7.16.05.91-.05,1.22-.3,1.22-1.22v-5.74c-5.53,2.49-11.22,4.92-15.53,6.75l-1.42-2.79c4.21-1.47,10.71-4.11,16.96-6.6v-5.94h-13.65v-2.49h13.65v-4.37h-15.69v-2.59h15.69v-4.16h-13.2v-2.54h13.2v-4.11h-17.01v11.98c0,7.77-.66,19.09-4.82,26.75-.61-.61-2.03-1.52-2.74-1.83,3.96-7.36,4.37-17.62,4.37-24.93v-15.03h20.05c-.76-1.32-1.57-2.84-2.39-4.06l3.2-.97c1.12,1.52,2.33,3.55,3.15,5.03h17.72v3.05h-18.12v4.11h13.55v6.5h5.08v2.95h-5.08v6.7h-13.55v5.84ZM592.87,58.77c2.54,1.47,5.89,3.76,7.57,5.28l-2.03,2.13c-1.62-1.57-4.87-3.96-7.46-5.58l1.93-1.83ZM608.5,48.72h10.35v-4.16h-10.35v4.16ZM608.5,55.68h10.35v-4.37h-10.35v4.37Z"/>
    <path class="cls-3" d="M679.7,42.63c-2.94,8.17-6.96,14.67-12.18,19.9,5.74,4.92,12.64,8.58,20.81,10.66-.76.71-1.73,2.13-2.29,3.05-8.33-2.28-15.33-6.14-21.07-11.27-5.74,5.03-12.74,8.73-21.27,11.47-.36-.76-1.37-2.33-2.08-3.1,8.48-2.49,15.33-5.99,20.92-10.76-5.33-5.48-9.44-12.23-12.39-19.95h-7.87v-3.3h45.43v3.3h-8.02ZM653.55,42.63c2.74,6.7,6.55,12.64,11.47,17.56,4.67-4.67,8.22-10.51,10.86-17.56h-22.34ZM664.98,39.02c-.61-2.03-2.29-5.43-3.86-7.92l3.45-1.01c1.57,2.39,3.35,5.63,4.06,7.77l-3.66,1.17Z"/>
    <path class="cls-3" d="M745.71,42.88c-1.27,8.28-3.2,14.98-6.35,20.46,2.59,4.52,5.84,8.07,10,10.25-.81.71-1.88,1.93-2.39,2.89-4.01-2.33-7.11-5.74-9.64-9.95-3.05,4.16-6.96,7.51-12.03,10.2-.36-.81-1.37-2.28-2.08-3,5.38-2.59,9.39-6.09,12.28-10.56-2.03-4.31-3.6-9.34-4.77-14.82-1.07,2.44-2.29,4.62-3.6,6.45-.56-.56-1.83-1.62-2.64-2.18-2.13,2.44-5.08,4.82-7.82,6.65v2.28c3.3-.46,6.75-.91,10.15-1.42l.05,2.95-10.2,1.47v8.33c0,1.83-.41,2.64-1.68,3.15-1.37.51-3.5.56-6.75.56-.15-.91-.61-2.08-1.07-3,2.59.1,4.77.05,5.43,0,.66,0,.86-.15.86-.76v-7.82l-10.2,1.52-.51-3.1,10.71-1.47v-3.55c2.03-1.22,4.37-3,6.09-4.72h-8.48c-1.98,1.57-4.06,3.05-6.24,4.27-.51-.61-1.73-1.93-2.44-2.54,4.21-2.18,8.02-5.08,11.37-8.43h-11.07v-3h8.98v-5.28h-6.85v-2.95h6.85v-5.48h3.15v5.48h5.33v2.95h-5.33v5.28h1.62c3.05-3.71,5.53-7.92,7.41-12.49l3.15.91c-1.78,4.26-3.96,8.07-6.55,11.57h6.65v3h-9.04c-1.22,1.37-2.49,2.74-3.86,3.96h8.02l.61-.2,1.83,1.32c3.81-5.28,6.4-13.35,7.92-21.73l3.35.51c-.56,3.1-1.22,6.09-2.08,8.88h15.08v3.15h-3.25ZM732.82,43.09c1.02,6.04,2.54,11.73,4.72,16.6,2.28-4.67,3.71-10.2,4.72-16.8h-9.39l-.05.2Z"/>
    <path class="cls-3" d="M773.2,46.89v29.6h-3.2v-29.6h-6.45v-3.15h6.45v-13.4h3.2v13.4h6.09v3.15h-6.09ZM792.14,56.89s0,.97-.05,1.42c-.41,11.57-.86,15.59-1.88,16.96-.66.81-1.37,1.12-2.44,1.17-.86.1-2.28.1-3.71.05-.05-.81-.3-2.03-.71-2.74,1.42.1,2.64.15,3.25.15.51,0,.86-.1,1.17-.51.66-.86,1.07-4.31,1.42-13.76h-4.42c-.81,7.16-2.79,13.1-7.41,17.01-.41-.66-1.32-1.62-1.93-2.13,4.06-3.35,5.74-8.58,6.4-14.87h-5.03v-2.74h5.28c.15-1.73.2-3.5.25-5.33h3c-.05,1.83-.15,3.6-.25,5.33h7.06ZM793.86,38.77c-1.78,5.64-5.33,9.75-12.59,12.44-.3-.66-1.12-1.83-1.73-2.39,6.34-2.13,9.49-5.48,11.07-10.05h-9.14v-2.79h9.9c.36-1.78.56-3.66.66-5.69h3.25c-.15,2.03-.41,3.91-.76,5.69h12.69s-.05.86-.15,1.37c-.66,7.46-1.32,10.51-2.49,11.68-.81.81-1.62,1.12-2.89,1.17-1.07.05-3.15.05-5.23-.05-.05-.91-.41-2.08-.91-2.94,2.18.25,4.16.25,4.92.25s1.17-.05,1.57-.46c.71-.66,1.27-2.89,1.83-8.22h-10ZM809.24,58.32c-.41,11.57-.76,15.59-1.83,16.91-.66.81-1.37,1.17-2.44,1.22-.97.1-2.54.1-4.16.05-.05-.86-.3-2.03-.71-2.84,1.57.15,2.94.15,3.55.15s.96-.05,1.32-.46c.61-.86.96-4.26,1.32-13.71h-4.92c-.86,7.21-2.89,13.05-7.77,16.91-.46-.66-1.32-1.68-1.98-2.18,4.37-3.25,6.04-8.38,6.8-14.72h-4.87v-2.74h5.13c.1-1.73.2-3.5.25-5.38h3c-.05,1.88-.15,3.66-.25,5.38h7.56v1.42Z"/>
    <path class="cls-3" d="M850.33,31.31c-.2.3-.46.61-.71.91,4.82,4.77,13.71,8.98,21.63,10.86-.76.66-1.68,1.78-2.13,2.64-4.11-1.17-8.58-3-12.59-5.23l-.05,1.62h-17.56l.05-1.42c-3.96,2.13-8.33,3.91-12.59,5.28-.36-.61-1.37-1.93-1.93-2.59,9.14-2.54,18.17-7.01,22.95-13.2l2.94,1.12ZM830.74,44.81h33.76v12.59h-33.76v-12.59ZM833.63,55.02h12.44v-7.82h-12.44v7.82ZM833.73,59.94h28.28v16.4h-3.4v-1.57h-21.58v1.73h-3.3v-16.55ZM839.37,47.91c1.42,1.73,2.74,4.16,3.2,5.79l-2.59,1.02c-.46-1.62-1.73-4.11-3.04-5.99l2.44-.81ZM837.03,62.43v3.66h21.58v-3.66h-21.58ZM858.61,72.28v-3.71h-21.58v3.71h21.58ZM855.06,39.63c-2.74-1.62-5.23-3.5-7.26-5.43-2.03,1.98-4.42,3.86-7.05,5.43h14.32ZM861.4,47.2h-12.49v7.82h12.49v-7.82ZM852.42,53.8c1.02-1.68,2.34-4.37,3-6.09l2.84.91c-1.12,2.23-2.49,4.57-3.5,6.09l-2.34-.91Z"/>
  </g>
  <g>
    <path class="cls-3" d="M281.14,95.73h-5.62v-1.76h13.37v1.76h-5.64v16.67h-2.11v-16.67Z"/>
    <path class="cls-3" d="M289.11,108.9c0-2.97,2.59-4.43,8.44-5.09.02-1.84-.55-3.65-2.9-3.65-1.64,0-3.1.78-4.13,1.51l-.83-1.44c1.19-.78,3.1-1.79,5.29-1.79,3.3,0,4.61,2.24,4.61,5.52v8.44h-1.69l-.18-1.66h-.08c-1.31,1.11-2.87,1.99-4.58,1.99-2.24,0-3.95-1.36-3.95-3.83ZM297.55,109.18v-3.98c-4.81.55-6.45,1.71-6.45,3.58,0,1.64,1.13,2.29,2.52,2.29s2.55-.65,3.93-1.89Z"/>
    <path class="cls-3" d="M303.66,94.44c0-.83.58-1.38,1.44-1.38.81,0,1.41.55,1.41,1.38,0,.88-.6,1.44-1.41,1.44-.86,0-1.44-.56-1.44-1.44ZM304.07,98.8h2.04v13.6h-2.04v-13.6Z"/>
    <path class="cls-3" d="M309.13,98.8h2.09l2.14,8.09c.3,1.28.55,2.49.83,3.75h.1c.33-1.26.6-2.47.96-3.75l2.19-8.09h2.07l2.22,8.09c.33,1.28.63,2.49.96,3.75h.1c.3-1.26.58-2.47.88-3.75l2.09-8.09h1.96l-3.73,13.6h-2.49l-2.07-7.58c-.38-1.31-.63-2.54-.96-3.93h-.13c-.3,1.39-.58,2.67-.98,3.96l-1.99,7.56h-2.42l-3.83-13.6Z"/>
    <path class="cls-3" d="M329.59,108.9c0-2.97,2.59-4.43,8.44-5.09.02-1.84-.55-3.65-2.9-3.65-1.64,0-3.1.78-4.13,1.51l-.83-1.44c1.19-.78,3.1-1.79,5.29-1.79,3.3,0,4.61,2.24,4.61,5.52v8.44h-1.69l-.18-1.66h-.08c-1.31,1.11-2.87,1.99-4.58,1.99-2.24,0-3.95-1.36-3.95-3.83ZM338.03,109.18v-3.98c-4.81.55-6.45,1.71-6.45,3.58,0,1.64,1.13,2.29,2.52,2.29s2.55-.65,3.93-1.89Z"/>
    <path class="cls-3" d="M344.55,98.8h1.66l.2,1.99h.07c1.31-1.28,2.72-2.34,4.59-2.34,2.85,0,4.16,1.84,4.16,5.32v8.64h-2.07v-8.39c0-2.62-.81-3.78-2.7-3.78-1.44,0-2.47.76-3.88,2.22v9.95h-2.04v-13.6Z"/>
    <path class="cls-3" d="M365.57,93.96h2.09v16.67h8.16v1.76h-10.25v-18.44Z"/>
    <path class="cls-3" d="M377.5,105.6c0-4.54,2.92-7.15,6.25-7.15s6.27,2.62,6.27,7.15-2.95,7.13-6.27,7.13-6.25-2.62-6.25-7.13ZM387.9,105.6c0-3.22-1.71-5.41-4.16-5.41s-4.13,2.19-4.13,5.41,1.69,5.41,4.13,5.41,4.16-2.17,4.16-5.41Z"/>
    <path class="cls-3" d="M393.72,98.8h1.66l.2,1.99h.07c1.31-1.28,2.72-2.34,4.59-2.34,2.85,0,4.16,1.84,4.16,5.32v8.64h-2.07v-8.39c0-2.62-.81-3.78-2.7-3.78-1.44,0-2.47.76-3.88,2.22v9.95h-2.04v-13.6Z"/>
    <path class="cls-3" d="M407.86,115.05c0-1.16.76-2.29,2.01-3.13v-.1c-.71-.43-1.23-1.16-1.23-2.24s.83-2.01,1.51-2.52v-.1c-.88-.71-1.76-2.04-1.76-3.68,0-2.92,2.29-4.84,5.04-4.84.76,0,1.41.18,1.89.35h4.71v1.59h-2.87c.68.65,1.19,1.71,1.19,2.95,0,2.9-2.17,4.76-4.91,4.76-.68,0-1.46-.18-2.09-.5-.5.43-.91.91-.91,1.71,0,.88.55,1.54,2.42,1.54h2.72c3.12,0,4.68.98,4.68,3.22,0,2.47-2.65,4.66-6.78,4.66-3.35,0-5.62-1.33-5.62-3.68ZM418.24,114.37c0-1.34-.98-1.79-2.85-1.79h-2.49c-.43,0-1.11-.08-1.74-.23-1.03.73-1.49,1.61-1.49,2.44,0,1.51,1.54,2.49,4.08,2.49,2.72,0,4.49-1.46,4.49-2.92ZM416.48,103.28c0-2.04-1.39-3.3-3.05-3.3s-3.05,1.23-3.05,3.3,1.41,3.4,3.05,3.4,3.05-1.34,3.05-3.4Z"/>
    <path class="cls-3" d="M421.53,105.6c0-4.41,2.95-7.15,6.07-7.15,3.4,0,5.37,2.44,5.37,6.37,0,.45-.03.91-.1,1.23h-9.29c.13,3.02,1.94,5.04,4.66,5.04,1.34,0,2.44-.43,3.45-1.11l.76,1.36c-1.19.76-2.57,1.39-4.46,1.39-3.58,0-6.45-2.65-6.45-7.13ZM431.15,104.54c0-2.9-1.31-4.43-3.53-4.43-2.02,0-3.8,1.64-4.08,4.43h7.61Z"/>
    <path class="cls-3" d="M434.52,98.8h2.14l2.7,7.91c.4,1.33.86,2.72,1.28,4h.1c.43-1.28.88-2.67,1.28-4l2.7-7.91h2.01l-4.86,13.6h-2.39l-4.96-13.6Z"/>
    <path class="cls-3" d="M449.05,94.44c0-.83.58-1.38,1.44-1.38.81,0,1.41.55,1.41,1.38,0,.88-.6,1.44-1.41,1.44-.86,0-1.44-.56-1.44-1.44ZM449.45,98.8h2.04v13.6h-2.04v-13.6Z"/>
    <path class="cls-3" d="M456.6,108.3v-7.81h-2.07v-1.56l2.14-.13.25-3.86h1.71v3.86h3.75v1.69h-3.75v7.88c0,1.66.5,2.67,2.14,2.67.5,0,1.13-.18,1.59-.38l.4,1.56c-.76.25-1.66.5-2.42.5-2.85,0-3.75-1.79-3.75-4.43Z"/>
    <path class="cls-3" d="M463.98,118.07l.43-1.66c.28.1.68.2,1.06.2,1.56,0,2.57-1.31,3.17-3.07l.3-1.06-5.49-13.68h2.14l2.9,7.78c.43,1.19.91,2.6,1.36,3.83h.13c.38-1.23.78-2.65,1.16-3.83l2.55-7.78h2.01l-5.19,14.86c-.91,2.59-2.32,4.68-4.96,4.68-.6,0-1.13-.1-1.56-.28Z"/>
    <path class="cls-3" d="M484.19,93.96h2.09v7.81h8.89v-7.81h2.09v18.44h-2.09v-8.82h-8.89v8.82h-2.09v-18.44Z"/>
    <path class="cls-3" d="M501.13,105.6c0-4.41,2.95-7.15,6.07-7.15,3.4,0,5.37,2.44,5.37,6.37,0,.45-.03.91-.1,1.23h-9.29c.13,3.02,1.94,5.04,4.66,5.04,1.34,0,2.44-.43,3.45-1.11l.76,1.36c-1.19.76-2.57,1.39-4.46,1.39-3.58,0-6.45-2.65-6.45-7.13ZM510.75,104.54c0-2.9-1.31-4.43-3.53-4.43-2.02,0-3.8,1.64-4.08,4.43h7.61Z"/>
    <path class="cls-3" d="M514.73,108.9c0-2.97,2.59-4.43,8.44-5.09.02-1.84-.55-3.65-2.9-3.65-1.64,0-3.1.78-4.13,1.51l-.83-1.44c1.19-.78,3.1-1.79,5.29-1.79,3.3,0,4.61,2.24,4.61,5.52v8.44h-1.69l-.18-1.66h-.08c-1.31,1.11-2.87,1.99-4.58,1.99-2.24,0-3.95-1.36-3.95-3.83ZM523.16,109.18v-3.98c-4.81.55-6.45,1.71-6.45,3.58,0,1.64,1.13,2.29,2.52,2.29s2.55-.65,3.93-1.89Z"/>
    <path class="cls-3" d="M529.68,109.91v-17.56h2.04v17.71c0,.68.28.96.63.96.13,0,.23,0,.48-.05l.3,1.59c-.33.1-.65.18-1.23.18-1.56,0-2.22-1.01-2.22-2.82Z"/>
    <path class="cls-3" d="M537.08,108.3v-7.81h-2.07v-1.56l2.14-.13.25-3.86h1.71v3.86h3.75v1.69h-3.75v7.88c0,1.66.5,2.67,2.14,2.67.5,0,1.13-.18,1.59-.38l.4,1.56c-.76.25-1.66.5-2.42.5-2.85,0-3.75-1.79-3.75-4.43Z"/>
    <path class="cls-3" d="M545.99,92.35h2.04v5.57l-.07,2.85c1.31-1.26,2.7-2.32,4.56-2.32,2.85,0,4.16,1.84,4.16,5.32v8.64h-2.07v-8.39c0-2.62-.81-3.78-2.7-3.78-1.44,0-2.47.76-3.88,2.22v9.95h-2.04v-20.05Z"/>
    <path class="cls-3" d="M565.88,108.9c0-2.97,2.59-4.43,8.44-5.09.02-1.84-.55-3.65-2.9-3.65-1.64,0-3.1.78-4.13,1.51l-.83-1.44c1.19-.78,3.1-1.79,5.29-1.79,3.3,0,4.61,2.24,4.61,5.52v8.44h-1.69l-.18-1.66h-.08c-1.31,1.11-2.87,1.99-4.58,1.99-2.24,0-3.95-1.36-3.95-3.83ZM574.32,109.18v-3.98c-4.81.55-6.45,1.71-6.45,3.58,0,1.64,1.13,2.29,2.52,2.29s2.55-.65,3.93-1.89Z"/>
    <path class="cls-3" d="M580.83,98.8h1.66l.2,1.99h.07c1.31-1.28,2.72-2.34,4.59-2.34,2.85,0,4.16,1.84,4.16,5.32v8.64h-2.07v-8.39c0-2.62-.81-3.78-2.7-3.78-1.44,0-2.47.76-3.88,2.22v9.95h-2.04v-13.6Z"/>
    <path class="cls-3" d="M595.03,105.6c0-4.38,2.8-7.15,5.92-7.15,1.61,0,2.67.6,3.9,1.61l-.1-2.37v-5.34h2.04v20.05h-1.69l-.18-1.64h-.08c-1.08,1.08-2.55,1.96-4.21,1.96-3.43,0-5.62-2.57-5.62-7.13ZM604.76,109.05v-7.36c-1.23-1.08-2.29-1.51-3.48-1.51-2.32,0-4.11,2.24-4.11,5.41,0,3.35,1.41,5.39,3.9,5.39,1.31,0,2.47-.66,3.68-1.94Z"/>
    <path class="cls-3" d="M617.34,93.96h10.5v1.76h-8.41v6.07h7.08v1.76h-7.08v7.08h8.69v1.76h-10.78v-18.44Z"/>
    <path class="cls-3" d="M630.55,105.6c0-4.38,2.8-7.15,5.92-7.15,1.61,0,2.67.6,3.9,1.61l-.1-2.37v-5.34h2.04v20.05h-1.69l-.18-1.64h-.08c-1.08,1.08-2.55,1.96-4.21,1.96-3.43,0-5.62-2.57-5.62-7.13ZM640.28,109.05v-7.36c-1.23-1.08-2.29-1.51-3.48-1.51-2.32,0-4.11,2.24-4.11,5.41,0,3.35,1.41,5.39,3.9,5.39,1.31,0,2.47-.66,3.68-1.94Z"/>
    <path class="cls-3" d="M646.87,107.44v-8.64h2.04v8.39c0,2.59.78,3.75,2.7,3.75,1.44,0,2.47-.73,3.83-2.39v-9.75h2.04v13.6h-1.69l-.18-2.17h-.08c-1.28,1.49-2.64,2.49-4.53,2.49-2.85,0-4.13-1.82-4.13-5.29Z"/>
    <path class="cls-3" d="M661.17,105.6c0-4.54,3.02-7.15,6.47-7.15,1.79,0,3.02.76,3.98,1.64l-1.08,1.33c-.81-.73-1.69-1.23-2.82-1.23-2.54,0-4.43,2.19-4.43,5.41s1.76,5.41,4.38,5.41c1.29,0,2.44-.63,3.3-1.39l.91,1.36c-1.21,1.08-2.72,1.74-4.38,1.74-3.58,0-6.32-2.62-6.32-7.13Z"/>
    <path class="cls-3" d="M673.8,108.9c0-2.97,2.59-4.43,8.44-5.09.02-1.84-.55-3.65-2.9-3.65-1.64,0-3.1.78-4.13,1.51l-.83-1.44c1.19-.78,3.1-1.79,5.29-1.79,3.3,0,4.61,2.24,4.61,5.52v8.44h-1.69l-.18-1.66h-.08c-1.31,1.11-2.87,1.99-4.58,1.99-2.24,0-3.95-1.36-3.95-3.83ZM682.24,109.18v-3.98c-4.81.55-6.45,1.71-6.45,3.58,0,1.64,1.13,2.29,2.52,2.29s2.55-.65,3.93-1.89Z"/>
    <path class="cls-3" d="M688.76,108.3v-7.81h-2.07v-1.56l2.14-.13.25-3.86h1.71v3.86h3.75v1.69h-3.75v7.88c0,1.66.5,2.67,2.14,2.67.5,0,1.13-.18,1.59-.38l.4,1.56c-.76.25-1.66.5-2.42.5-2.85,0-3.75-1.79-3.75-4.43Z"/>
    <path class="cls-3" d="M697.26,94.44c0-.83.58-1.38,1.44-1.38.81,0,1.41.55,1.41,1.38,0,.88-.6,1.44-1.41,1.44-.86,0-1.44-.56-1.44-1.44ZM697.67,98.8h2.04v13.6h-2.04v-13.6Z"/>
    <path class="cls-3" d="M703.38,105.6c0-4.54,2.92-7.15,6.25-7.15s6.27,2.62,6.27,7.15-2.95,7.13-6.27,7.13-6.25-2.62-6.25-7.13ZM713.79,105.6c0-3.22-1.71-5.41-4.16-5.41s-4.13,2.19-4.13,5.41,1.69,5.41,4.13,5.41,4.16-2.17,4.16-5.41Z"/>
    <path class="cls-3" d="M719.6,98.8h1.66l.2,1.99h.07c1.31-1.28,2.72-2.34,4.59-2.34,2.85,0,4.16,1.84,4.16,5.32v8.64h-2.07v-8.39c0-2.62-.81-3.78-2.7-3.78-1.44,0-2.47.76-3.88,2.22v9.95h-2.04v-13.6Z"/>
    <path class="cls-3" d="M744.47,93.96h2.29l6.32,18.44h-2.22l-1.84-5.82h-6.88l-1.89,5.82h-2.09l6.3-18.44ZM742.68,104.94h5.82l-.96-3c-.71-2.09-1.28-4.08-1.91-6.24h-.1c-.6,2.19-1.21,4.16-1.89,6.24l-.96,3Z"/>
    <path class="cls-3" d="M754.66,110.86l1.03-1.39c1.18.96,2.39,1.64,4.1,1.64,1.89,0,2.82-1.01,2.82-2.27,0-1.46-1.64-2.12-3.17-2.67-1.94-.71-4.03-1.61-4.03-3.93,0-2.12,1.69-3.8,4.64-3.8,1.64,0,3.1.68,4.13,1.51l-1.01,1.34c-.93-.68-1.89-1.21-3.12-1.21-1.81,0-2.64.96-2.64,2.07,0,1.36,1.41,1.89,2.97,2.44,1.99.78,4.21,1.56,4.21,4.16,0,2.17-1.71,3.98-4.86,3.98-1.94,0-3.78-.81-5.06-1.87Z"/>
    <path class="cls-3" d="M766.32,110.86l1.03-1.39c1.18.96,2.39,1.64,4.1,1.64,1.89,0,2.82-1.01,2.82-2.27,0-1.46-1.64-2.12-3.17-2.67-1.94-.71-4.03-1.61-4.03-3.93,0-2.12,1.69-3.8,4.64-3.8,1.64,0,3.1.68,4.13,1.51l-1.01,1.34c-.93-.68-1.89-1.21-3.12-1.21-1.81,0-2.64.96-2.64,2.07,0,1.36,1.41,1.89,2.97,2.44,1.99.78,4.21,1.56,4.21,4.16,0,2.17-1.71,3.98-4.86,3.98-1.94,0-3.78-.81-5.06-1.87Z"/>
    <path class="cls-3" d="M778.5,105.6c0-4.54,2.92-7.15,6.25-7.15s6.27,2.62,6.27,7.15-2.95,7.13-6.27,7.13-6.25-2.62-6.25-7.13ZM788.91,105.6c0-3.22-1.71-5.41-4.16-5.41s-4.13,2.19-4.13,5.41,1.69,5.41,4.13,5.41,4.16-2.17,4.16-5.41Z"/>
    <path class="cls-3" d="M793.66,105.6c0-4.54,3.02-7.15,6.47-7.15,1.79,0,3.02.76,3.98,1.64l-1.08,1.33c-.81-.73-1.69-1.23-2.82-1.23-2.54,0-4.43,2.19-4.43,5.41s1.76,5.41,4.38,5.41c1.29,0,2.44-.63,3.3-1.39l.91,1.36c-1.21,1.08-2.72,1.74-4.38,1.74-3.58,0-6.32-2.62-6.32-7.13Z"/>
    <path class="cls-3" d="M807.05,94.44c0-.83.58-1.38,1.44-1.38.81,0,1.41.55,1.41,1.38,0,.88-.6,1.44-1.41,1.44-.86,0-1.44-.56-1.44-1.44ZM807.45,98.8h2.04v13.6h-2.04v-13.6Z"/>
    <path class="cls-3" d="M813.34,108.9c0-2.97,2.59-4.43,8.44-5.09.02-1.84-.55-3.65-2.9-3.65-1.64,0-3.1.78-4.13,1.51l-.83-1.44c1.19-.78,3.1-1.79,5.29-1.79,3.3,0,4.61,2.24,4.61,5.52v8.44h-1.69l-.18-1.66h-.08c-1.31,1.11-2.87,1.99-4.58,1.99-2.24,0-3.95-1.36-3.95-3.83ZM821.78,109.18v-3.98c-4.81.55-6.45,1.71-6.45,3.58,0,1.64,1.13,2.29,2.52,2.29s2.55-.65,3.93-1.89Z"/>
    <path class="cls-3" d="M828.3,108.3v-7.81h-2.07v-1.56l2.14-.13.25-3.86h1.71v3.86h3.75v1.69h-3.75v7.88c0,1.66.5,2.67,2.14,2.67.5,0,1.13-.18,1.59-.38l.4,1.56c-.76.25-1.66.5-2.42.5-2.85,0-3.75-1.79-3.75-4.43Z"/>
    <path class="cls-3" d="M836.81,94.44c0-.83.58-1.38,1.44-1.38.81,0,1.41.55,1.41,1.38,0,.88-.6,1.44-1.41,1.44-.86,0-1.44-.56-1.44-1.44ZM837.21,98.8h2.04v13.6h-2.04v-13.6Z"/>
    <path class="cls-3" d="M842.92,105.6c0-4.54,2.92-7.15,6.25-7.15s6.27,2.62,6.27,7.15-2.95,7.13-6.27,7.13-6.25-2.62-6.25-7.13ZM853.33,105.6c0-3.22-1.71-5.41-4.16-5.41s-4.13,2.19-4.13,5.41,1.69,5.41,4.13,5.41,4.16-2.17,4.16-5.41Z"/>
    <path class="cls-3" d="M859.14,98.8h1.66l.2,1.99h.07c1.31-1.28,2.72-2.34,4.59-2.34,2.85,0,4.16,1.84,4.16,5.32v8.64h-2.07v-8.39c0-2.62-.81-3.78-2.7-3.78-1.44,0-2.47.76-3.88,2.22v9.95h-2.04v-13.6Z"/>
  </g>
  <g>
    <g>
      <path class="cls-3" d="M200.53,0h-7.53C176.04,0,159.72,10.28,156.73,22.83l-14.64,61.46c-2.99,12.56,8.44,22.83,25.4,22.83h7.53c16.96,0,33.29-10.28,36.28-22.83l14.64-61.46C228.93,10.28,217.49,0,200.53,0ZM204.33,22.66l-14.64,61.46c-.88,3.69-5.83,6.81-10.82,6.81h-7.53c-4.99,0-8.46-3.12-7.58-6.81l14.64-61.46c.88-3.69,5.83-6.81,10.82-6.81h7.53c4.99,0,8.46,3.12,7.58,6.81Z"/>
      <g>
        <g>
          <path class="cls-3" d="M31.71,53.36h6.64c6.83,0,13.33-4.1,14.54-9.15L63.42,0h-6.64c-6.83,0-13.33,4.1-14.54,9.15l-10.53,44.21Z"/>
          <path class="cls-3" d="M0,106.72h6.64c6.83,0,13.33-4.1,14.54-9.15l10.53-44.21h-6.64c-6.83,0-13.33,4.1-14.54,9.15L0,106.72Z"/>
        </g>
        <g>
          <g>
            <path class="cls-4" d="M31.61,53.77h-6.64c-6.83,0-11.38-4.1-10.18-9.15L25.32.41h6.64c6.83,0,11.38,4.1,10.18,9.15l-10.53,44.21Z"/>
            <path class="cls-1" d="M31.92,54.17h-6.95c-4.01,0-7.4-1.37-9.29-3.76-1.34-1.7-1.78-3.73-1.27-5.87L25,.02h6.96c4.01,0,7.4,1.37,9.29,3.76,1.34,1.7,1.79,3.73,1.27,5.87l-10.6,44.51ZM25.63.81l-10.46,43.9c-.45,1.9-.06,3.69,1.12,5.2,1.74,2.2,4.9,3.46,8.67,3.46h6.33l10.46-43.9c.45-1.9.06-3.7-1.12-5.2-1.74-2.2-4.9-3.46-8.67-3.46h-6.33Z"/>
          </g>
          <g>
            <path class="cls-4" d="M37.91,107.13h-6.64c-6.83,0-11.38-4.1-10.18-9.15l10.53-44.21h6.64c6.83,0,11.38,4.1,10.18,9.15l-10.53,44.21Z"/>
            <path class="cls-1" d="M38.22,107.53h-6.95c-4.01,0-7.4-1.37-9.29-3.76-1.34-1.7-1.79-3.73-1.27-5.88l10.6-44.51h6.96c4.01,0,7.4,1.37,9.29,3.76,1.34,1.7,1.79,3.73,1.27,5.87l-10.6,44.51ZM31.92,54.17l-10.46,43.9c-.45,1.9-.06,3.7,1.13,5.2,1.74,2.2,4.9,3.46,8.67,3.46h6.33l10.46-43.9c.45-1.9.06-3.7-1.12-5.2-1.74-2.2-4.9-3.46-8.67-3.46h-6.33Z"/>
          </g>
        </g>
      </g>
      <path class="cls-3" d="M116.48,0h-7.53C91.99,0,75.66,10.28,72.67,22.83l-14.64,61.46c-2.99,12.56,8.44,22.83,25.4,22.83h7.53c16.96,0,33.29-10.28,36.28-22.83l14.64-61.46C144.87,10.28,133.44,0,116.48,0ZM120.28,22.66l-14.64,61.46c-.88,3.69-5.83,6.81-10.82,6.81h-7.53c-4.99,0-8.46-3.12-7.58-6.81l14.64-61.46c.88-3.69,5.83-6.81,10.82-6.81h7.53c4.99,0,8.46,3.12,7.58,6.81Z"/>
    </g>
    <g>
      <rect class="cls-4" x="70.56" y="125.01" width="70.56" height="6.68"/>
      <rect class="cls-4" x="141.11" y="117.32" width="70.56" height="6.68"/>
      <rect class="cls-4" y="131.42" width="70.56" height="10.97"/>
      <rect class="cls-2" x="141.11" y="133.36" width="70.56" height="6.68"/>
      <rect class="cls-2" x="71.5" y="139.78" width="70.56" height="6.68"/>
    </g>
  </g>
</svg>